<svg width="24" height="24" viewBox="0 0 24 24" fill="none" xmlns="http://www.w3.org/2000/svg">
<path d="M19.3049 10.6815C17.1242 9.31881 16.2797 8.23428 17.7545 5.81506L10.849 1.5L1.99999 16.0153L12.1766 22.3744L19.3049 10.6815ZM15.1262 17.5359L4.94966 11.1769L15.1262 17.5359ZM7.89933 6.33845L18.0759 12.6975L7.89933 6.33845ZM7.08828 19.1949L15.9373 4.67952L7.08828 19.1949Z" fill="#FCF1E0"/>
<path d="M15.1262 17.5359L4.94966 11.1769M7.89933 6.33845L18.0759 12.6975M7.08828 19.1949L15.9373 4.67952M19.3049 10.6815C17.1242 9.31881 16.2797 8.23428 17.7545 5.81506L10.849 1.5L1.99999 16.0153L12.1766 22.3744L19.3049 10.6815Z" stroke="#FCF1E0" stroke-width="2" stroke-linecap="round" stroke-linejoin="round"/>
<path d="M15.1262 17.5359L4.94966 11.1769M7.89933 6.33845L18.0759 12.6975M7.08828 19.1949L15.9373 4.67952M19.3049 10.6815C17.1242 9.31881 16.2797 8.23428 17.7545 5.81506L10.849 1.5L1.99999 16.0153L12.1766 22.3744L19.3049 10.6815Z" stroke="#FD9222" stroke-width="2" stroke-linecap="round" stroke-linejoin="round"/>
</svg>
